<svg
 xmlns="http://www.w3.org/2000/svg"
 xmlns:xlink="http://www.w3.org/1999/xlink"
 width="32px" height="32px">
<path fill-rule="evenodd"  fill="rgb(0, 0, 0)"
 d="M30.657,12.000 L30.657,30.667 C30.657,31.403 30.061,32.000 29.325,32.000 L2.675,32.000 C1.939,32.000 1.342,31.403 1.342,30.667 L1.342,12.000 C0.606,12.000 0.010,11.403 0.010,10.666 L0.010,5.397 C-0.000,5.205 0.033,5.007 0.114,4.816 C0.115,4.814 0.115,4.813 0.116,4.811 C0.130,4.778 0.146,4.745 0.164,4.712 C0.168,4.705 0.171,4.697 0.175,4.690 C0.193,4.658 0.213,4.625 0.234,4.594 L0.236,4.590 C0.237,4.589 0.238,4.587 0.239,4.586 L2.899,0.594 C3.146,0.223 3.562,-0.000 4.007,-0.000 L27.992,-0.000 C28.438,-0.000 28.854,0.223 29.101,0.594 L31.761,4.586 C31.762,4.587 31.763,4.589 31.764,4.590 L31.766,4.594 C31.787,4.625 31.807,4.658 31.825,4.690 C31.829,4.697 31.832,4.705 31.836,4.712 C31.854,4.745 31.870,4.778 31.884,4.811 C31.885,4.813 31.885,4.814 31.886,4.816 C31.967,5.007 32.000,5.205 31.990,5.397 L31.990,10.667 C31.990,11.403 31.393,12.000 30.657,12.000 ZM4.007,29.333 L27.992,29.333 L27.992,12.000 L4.007,12.000 L4.007,29.333 ZM27.279,2.667 L4.720,2.667 L3.832,4.000 L28.168,4.000 L27.279,2.667 ZM29.325,6.666 L2.675,6.666 L2.675,9.333 L29.325,9.333 L29.325,9.333 L29.325,6.666 ZM23.995,28.000 L8.005,28.000 C7.269,28.000 6.672,27.403 6.672,26.667 L6.672,21.333 C6.672,20.597 7.269,20.000 8.005,20.000 L23.995,20.000 C24.731,20.000 25.327,20.597 25.327,21.333 L25.327,26.667 C25.327,27.403 24.731,28.000 23.995,28.000 ZM22.662,22.667 L9.337,22.667 L9.337,25.333 L22.662,25.333 L22.662,22.667 Z"/>
</svg>
