<svg width="31" height="24" viewBox="0 0 31 24" fill="none" xmlns="http://www.w3.org/2000/svg">
<path d="M12.3871 5.65154H16.6451C16.6716 5.65294 16.6981 5.65294 16.7246 5.65154C17.1302 5.62953 17.4413 5.28293 17.4193 4.87735C17.4193 4.44976 17.0727 4.10316 16.6451 4.10316H12.3871C11.9595 4.10316 11.6129 4.44976 11.6129 4.87735C11.6115 4.90387 11.6115 4.9304 11.6129 4.95692C11.6348 5.3625 11.9814 5.67354 12.3871 5.65154Z" fill="white"/>
<path d="M12.3871 12.2322H25.5483C25.5748 12.2336 25.6013 12.2336 25.6279 12.2322C26.0334 12.2102 26.3445 11.8636 26.3225 11.458C26.3225 11.0304 25.9759 10.6838 25.5483 10.6838H12.3871C11.9595 10.6838 11.6129 11.0304 11.6129 11.458C11.6115 11.4845 11.6115 11.511 11.6129 11.5376C11.6348 11.9431 11.9814 12.2541 12.3871 12.2322Z" fill="white"/>
<path d="M12.3871 8.74829H25.5483C25.5748 8.7497 25.6013 8.7497 25.6279 8.74829C26.0334 8.72629 26.3445 8.37969 26.3225 7.97411C26.3225 7.54652 25.9759 7.19992 25.5483 7.19992H12.3871C11.9595 7.19992 11.6129 7.54652 11.6129 7.97411C11.6115 8.00063 11.6115 8.02716 11.6129 8.05368C11.6348 8.45926 11.9814 8.7703 12.3871 8.74829Z" fill="white"/>
<path d="M29.3417 7.61787e-06H8.59351C8.15184 -0.00184469 7.78205 0.334312 7.74189 0.774197V3.87095H0.851616C0.409952 3.8691 0.040158 4.20526 0 4.64507V23.2256C0.0102988 23.5178 0.19264 23.7761 0.464484 23.8837C0.578141 23.9621 0.713582 24.0027 0.851541 23.9998C1.00173 24.0032 1.14969 23.9629 1.27735 23.8837L5.99991 20.516H21.5998C22.0479 20.4981 22.4127 20.1498 22.4514 19.7031V16.6451H24.1933L28.8771 20.0128C29.0209 20.087 29.1799 20.1267 29.3416 20.1289C29.7704 20.0989 30.1226 19.7788 30.1932 19.3547V0.774197C30.1531 0.334312 29.7834 -0.00184469 29.3417 7.61787e-06ZM20.903 18.9676H5.76771C5.59351 18.9693 5.42184 19.009 5.26447 19.0837L1.54838 21.716V5.41926H7.74189V15.8321C7.78057 16.2789 8.1454 16.6272 8.59351 16.645H20.9031V18.9676H20.903ZM28.6449 17.845L24.9288 15.2128C24.7715 15.1381 24.5998 15.0984 24.4256 15.0967H9.29027V1.54839H28.6449V17.845Z" fill="white"/>
</svg>
