<svg width="32" height="32" viewBox="0 0 32 32" fill="none" xmlns="http://www.w3.org/2000/svg">
<g clip-path="url(#clip0)">
<path d="M19.468 16H12.532C11.612 16 10.7747 15.456 10.4 14.6133L6.98266 6.92267C6.77333 6.45467 6.66666 5.952 6.66666 5.43467V1C6.66666 0.448 7.11466 0 7.66666 0H24.3333C24.8853 0 25.3333 0.448 25.3333 1V5.43467C25.3333 5.95333 25.2267 6.45467 25.016 6.92533L21.6 14.6147C21.2253 15.456 20.388 16 19.468 16ZM8.66667 2V5.43467C8.66667 5.66933 8.71467 5.896 8.80933 6.10933L12.228 13.8027C12.2813 13.9227 12.4 14 12.532 14H19.4667C19.5987 14 19.7173 13.9227 19.7707 13.8027L23.188 6.11067C23.2853 5.896 23.3333 5.66933 23.3333 5.43467V2H8.66667Z" fill="black"/>
<path d="M16 32.0001C12.3867 32.0001 9.33334 28.9094 9.33334 25.2507C9.33334 22.712 10.7187 20.412 12.9507 19.2467C14.196 18.5987 15 17.192 15 15.6667C15 15.1147 15.448 14.6667 16 14.6667C16.552 14.6667 17 15.1147 17 15.6667C17 17.964 15.8027 20.0147 13.8747 21.02C12.3067 21.8387 11.3333 23.46 11.3333 25.2507C11.3333 27.8254 13.4707 30.0001 16 30.0001C18.5733 30.0001 20.6667 27.8694 20.6667 25.2507C20.6667 24.6987 21.1147 24.2507 21.6667 24.2507C22.2187 24.2507 22.6667 24.6974 22.6667 25.2507C22.6667 28.972 19.676 32.0001 16 32.0001Z" fill="black"/>
<path d="M8.44 8.74664C8.17734 8.74664 7.91334 8.64264 7.71734 8.43864C7.336 8.03864 7.35067 7.4053 7.74934 7.02397L14.8027 0.277303C15.2013 -0.105364 15.832 -0.0906971 16.2173 0.30797C16.5987 0.706636 16.584 1.33997 16.1867 1.72264L9.13334 8.4693C8.93734 8.65464 8.68934 8.74664 8.44 8.74664Z" fill="black"/>
<path d="M10.4667 13.3067C10.2067 13.3067 9.94534 13.2053 9.74934 13.0027C9.364 12.608 9.37334 11.9733 9.76934 11.5893L21.4093 0.282679C21.8053 -0.101321 22.4374 -0.0919879 22.824 0.304012C23.208 0.698679 23.1987 1.33335 22.804 1.71735L11.164 13.024C10.9693 13.2133 10.7173 13.3067 10.4667 13.3067Z" fill="black"/>
<path d="M14.3867 16C14.1267 16 13.864 15.8987 13.6693 15.696C13.284 15.3 13.2947 14.6667 13.6907 14.2827L23.6373 4.62936C24.0333 4.24536 24.668 4.25469 25.052 4.65069C25.4373 5.04669 25.4267 5.68002 25.0307 6.06536L15.084 15.7187C14.8893 15.9067 14.6387 16 14.3867 16Z" fill="black"/>
</g>
<defs>
<clipPath id="clip0">
<rect width="32" height="32" fill="white"/>
</clipPath>
</defs>
</svg>
