<svg width="37" height="36" viewBox="0 0 37 36" fill="none" xmlns="http://www.w3.org/2000/svg">
<path d="M18.3636 0C8.42249 0 0.363647 8.05884 0.363647 18C0.363647 27.9412 8.42249 36 18.3636 36C28.3048 36 36.3636 27.9412 36.3636 18C36.3636 8.05884 28.3048 0 18.3636 0ZM25.2307 9.16665L22.7411 9.16775C20.7888 9.16775 20.4113 10.0955 20.4113 11.4567V14.4582H25.0668L25.0646 19.1594H20.4117V31.2237H15.5558V19.1594H11.4966V14.4582H15.5558V10.9911C15.5558 6.96761 18.0141 4.77631 21.6031 4.77631L25.2311 4.78183V9.16665H25.2307Z" fill="white"/>
</svg>
