<svg width="19" height="24" viewBox="0 0 19 24" fill="none" xmlns="http://www.w3.org/2000/svg">
<path d="M16.6677 0H12.3241C11.3111 0 10.4869 0.824158 10.4869 1.83718V6.18086C10.4869 7.19387 11.3111 8.01803 12.3241 8.01803H16.6677C17.6808 8.01803 18.505 7.19387 18.505 6.18086V1.83718C18.505 0.824158 17.6809 0 16.6677 0ZM17.0988 6.18086C17.0988 6.41847 16.9054 6.61178 16.6678 6.61178H12.3242C12.0866 6.61178 11.8932 6.41847 11.8932 6.18086V1.83718C11.8932 1.59957 12.0866 1.40625 12.3242 1.40625H16.6678C16.9054 1.40625 17.0988 1.59957 17.0988 1.83718V6.18086Z" fill="white"/>
<path d="M13.303 9.77341C12.9656 9.77341 12.6475 9.85713 12.3683 10.0049C12.0085 9.46591 11.3949 9.11027 10.6996 9.11027C10.3406 9.11027 10.0033 9.20514 9.71148 9.37113C9.34618 8.87505 8.75813 8.55264 8.09625 8.55264C7.88794 8.55264 7.6868 8.58461 7.49771 8.64386V8.01798H7.66472C8.67774 8.01798 9.5019 7.19383 9.5019 6.18081V1.83718C9.5019 0.824158 8.67774 0 7.66472 0H3.32109C2.30807 0 1.48391 0.824158 1.48391 1.83718V6.18086C1.48391 7.19387 2.30807 8.01803 3.32109 8.01803H3.4881V12.3738C3.3794 12.2647 3.25729 12.1676 3.12323 12.0843C2.69132 11.816 2.18484 11.7226 1.68819 11.8182C1.15419 11.8397 0.674943 12.0727 0.363646 12.4651C0.036645 12.8772 -0.0769334 13.4299 0.0519262 13.9814L0.975928 17.9359C1.50299 21.2353 4.07672 23.7038 4.18631 23.8075C4.3169 23.9311 4.48987 24 4.66968 24H12.5781C12.8148 24 13.0356 23.8809 13.1656 23.6831C14.5663 21.5526 15.3069 19.0787 15.3072 16.5291L15.3079 11.7783C15.3079 11.7782 15.3079 11.7782 15.3079 11.7782C15.3078 10.6728 14.4085 9.77341 13.303 9.77341ZM4.96509 22.5938C4.39842 21.991 2.72845 20.0446 2.36104 17.6923C2.35832 17.6751 2.35499 17.6579 2.35101 17.6409L1.42119 13.6615C1.39016 13.5285 1.40577 13.4141 1.46521 13.3391C1.52465 13.2642 1.62632 13.225 1.76221 13.2121C1.8306 13.2056 1.85896 13.1974 1.9222 13.1936C2.08171 13.1839 2.24526 13.1945 2.3811 13.2789C2.51695 13.3632 2.61173 13.4954 2.6481 13.6511L3.45009 17.0836C3.51707 17.3702 3.75543 17.5848 4.04747 17.6213L4.10381 17.6284C4.30401 17.6534 4.5052 17.5913 4.65642 17.4578C4.80764 17.3244 4.89422 17.1324 4.89422 16.9307V5.75589C4.89422 5.42584 5.16277 5.15729 5.49281 5.15729C5.82286 5.15729 6.09141 5.42584 6.09141 5.75589V10.5575V12.3493C6.09141 12.7376 6.40622 13.0525 6.79453 13.0525C7.18285 13.0525 7.49766 12.7376 7.49766 12.3493V10.5575C7.49766 10.2274 7.76616 9.95894 8.09621 9.95894C8.42626 9.95894 8.6948 10.2274 8.6948 10.5575V11.1151V12.4294C8.6948 12.8177 9.00962 13.1325 9.39793 13.1325C9.78624 13.1325 10.1011 12.8177 10.1011 12.4294V11.1151C10.1011 10.7851 10.3696 10.5165 10.6996 10.5165C11.0297 10.5165 11.2982 10.7851 11.2982 11.1151V11.7782V12.9204C11.2982 13.3087 11.613 13.6235 12.0013 13.6235C12.3896 13.6235 12.7045 13.3087 12.7045 12.9204V11.7782C12.7045 11.4482 12.973 11.1796 13.303 11.1796C13.6331 11.1796 13.9016 11.4482 13.9016 11.7781L13.9009 16.529C13.9006 18.678 13.3107 20.7668 12.1916 22.5938H4.96509ZM2.89017 6.18086V1.83718C2.89017 1.59957 3.08348 1.40625 3.32109 1.40625H7.66472C7.90233 1.40625 8.09564 1.59957 8.09564 1.83718V6.18086C8.09564 6.41847 7.90233 6.61178 7.66472 6.61178H7.49771V5.75584C7.49771 4.65038 6.59831 3.75099 5.49286 3.75099C4.3874 3.75099 3.48801 4.65038 3.48801 5.75584V6.61178H3.321C3.08348 6.61178 2.89017 6.41847 2.89017 6.18086Z" fill="white"/>
</svg>
