<svg width="37" height="36" viewBox="0 0 37 36" fill="none" xmlns="http://www.w3.org/2000/svg">
<path d="M18.2073 23.1048C21.1494 23.1048 23.5345 20.7936 23.5345 17.9425C23.5345 15.0915 21.1494 12.7803 18.2073 12.7803C15.2651 12.7803 12.88 15.0915 12.88 17.9425C12.88 20.7936 15.2651 23.1048 18.2073 23.1048Z" fill="white"/>
<path d="M26.4528 18.2305C26.4528 22.643 22.7611 26.2194 18.2073 26.2194C13.6534 26.2194 9.9617 22.643 9.9617 18.2305C9.9617 17.4398 10.081 16.676 10.302 15.9545H7.86542V27.1604C7.86542 27.7408 8.33977 28.2148 8.91982 28.2148H27.3927C27.9731 28.2148 28.4478 27.7408 28.4478 27.1604V15.9545H26.1125C26.3331 16.676 26.4528 17.4398 26.4528 18.2305Z" fill="white"/>
<path d="M24.2428 12.9305H27.241C27.898 12.9305 28.435 12.3936 28.435 11.7366V8.87792C28.435 8.22053 27.898 7.68356 27.241 7.68356H24.2428C23.5854 7.68356 23.0484 8.22053 23.0484 8.87792V11.7366C23.048 12.3932 23.5854 12.9305 24.2428 12.9305Z" fill="white"/>
<path d="M18.1818 0C8.24067 0 0.181824 8.05884 0.181824 18C0.181824 27.9412 8.24067 36 18.1818 36C28.123 36 36.1818 27.9412 36.1818 18C36.1818 8.05884 28.123 0 18.1818 0ZM28.0408 31.2642H8.32316C6.44969 31.2642 4.91799 29.8776 4.91799 27.8598V8.14097C4.91799 6.12239 6.44969 4.73616 8.32316 4.73616H28.0408C29.914 4.73616 31.446 6.12239 31.446 8.14097V27.8598C31.446 29.8776 29.9136 31.2642 28.0408 31.2642Z" fill="white"/>
</svg>
