<svg width="23" height="24" viewBox="0 0 23 24" fill="none" xmlns="http://www.w3.org/2000/svg">
<path d="M10.4135 15.9616C10.1813 15.9872 9.94791 16 9.71434 16C6.24839 16 3.42862 13.1802 3.42862 9.71428C3.42862 6.24833 6.24839 3.42857 9.71434 3.42857C11.1405 3.4217 12.5261 3.9028 13.6412 4.792C14.7562 5.68121 15.5336 6.92502 15.8443 8.31695C15.8778 8.46475 15.9687 8.59316 16.0969 8.67395C16.2252 8.75474 16.3802 8.78128 16.528 8.74774C16.6758 8.71419 16.8042 8.62331 16.885 8.49509C16.9658 8.36686 16.9924 8.21179 16.9588 8.064C16.5843 6.42267 15.6637 4.95714 14.3475 3.90738C13.0314 2.85762 11.3978 2.28586 9.71434 2.28571C5.6182 2.28571 2.28577 5.61814 2.28577 9.71428C2.28577 13.8104 5.6182 17.1429 9.71434 17.1429C9.98985 17.1428 10.2652 17.1277 10.539 17.0975C10.614 17.0898 10.6868 17.0674 10.7531 17.0314C10.8195 16.9955 10.878 16.9468 10.9254 16.8881C10.9728 16.8294 11.0081 16.7619 11.0293 16.6895C11.0505 16.6171 11.0571 16.5413 11.0488 16.4663C11.0406 16.3913 11.0175 16.3187 10.981 16.2527C10.9445 16.1867 10.8954 16.1285 10.8363 16.0816C10.7772 16.0347 10.7094 15.9999 10.6369 15.9793C10.5643 15.9587 10.4884 15.9527 10.4135 15.9616Z" fill="white"/>
<path d="M10.4762 9.14286H8.95242C8.69983 9.14286 8.45759 9.04252 8.27898 8.86391C8.10037 8.68531 8.00003 8.44306 8.00003 8.19048C8.00003 7.93789 8.10037 7.69565 8.27898 7.51704C8.45759 7.33844 8.69983 7.2381 8.95242 7.2381H10.8572C11.0087 7.23826 11.1539 7.29852 11.2611 7.40565C11.3682 7.51277 11.4284 7.65802 11.4286 7.80953C11.4286 7.96108 11.4888 8.10642 11.596 8.21359C11.7031 8.32075 11.8485 8.38095 12 8.38095C12.1516 8.38095 12.2969 8.32075 12.4041 8.21359C12.5113 8.10642 12.5715 7.96108 12.5715 7.80953C12.571 7.35502 12.3902 6.91928 12.0688 6.5979C11.7474 6.27652 11.3117 6.09574 10.8572 6.09524H10.2857V5.14286C10.2857 4.99131 10.2255 4.84596 10.1184 4.7388C10.0112 4.63163 9.86587 4.57143 9.71432 4.57143C9.56277 4.57143 9.41742 4.63163 9.31026 4.7388C9.2031 4.84596 9.14289 4.99131 9.14289 5.14286V6.09524H8.95242C8.39672 6.09524 7.86379 6.31599 7.47086 6.70892C7.07793 7.10185 6.85718 7.63479 6.85718 8.19048C6.85718 8.74617 7.07793 9.2791 7.47086 9.67204C7.86379 10.065 8.39672 10.2857 8.95242 10.2857H10.4762C10.7288 10.2857 10.9711 10.3861 11.1497 10.5647C11.3283 10.7433 11.4286 10.9855 11.4286 11.2381C11.4286 11.4907 11.3283 11.7329 11.1497 11.9115C10.9711 12.0901 10.7288 12.1905 10.4762 12.1905H8.57146C8.41996 12.1903 8.27471 12.1301 8.16758 12.0229C8.06046 11.9158 8.0002 11.7706 8.00003 11.619C8.00003 11.4675 7.93983 11.3222 7.83267 11.215C7.7255 11.1078 7.58016 11.0476 7.42861 11.0476C7.27705 11.0476 7.13171 11.1078 7.02455 11.215C6.91738 11.3222 6.85718 11.4675 6.85718 11.619C6.85768 12.0736 7.03846 12.5093 7.35984 12.8307C7.68122 13.1521 8.11696 13.3328 8.57146 13.3333H9.14289V14.2857C9.14289 14.4373 9.2031 14.5826 9.31026 14.6898C9.41742 14.7969 9.56277 14.8571 9.71432 14.8571C9.86587 14.8571 10.0112 14.7969 10.1184 14.6898C10.2255 14.5826 10.2857 14.4373 10.2857 14.2857V13.3333H10.4762C11.0319 13.3333 11.5648 13.1126 11.9578 12.7197C12.3507 12.3267 12.5715 11.7938 12.5715 11.2381C12.5715 10.6824 12.3507 10.1495 11.9578 9.75654C11.5648 9.36361 11.0319 9.14286 10.4762 9.14286Z" fill="white"/>
<path d="M20.9524 15.249V12.7619C20.9519 12.2395 20.8083 11.7271 20.5371 11.2806C20.2659 10.834 19.8776 10.4702 19.4143 10.2288C19.4233 10.0579 19.4286 9.88638 19.4286 9.71429C19.4286 4.35781 15.0708 0 9.71429 0C4.35781 0 0 4.35781 0 9.71429C0 15.0708 4.35781 19.4286 9.71429 19.4286C10.55 19.4292 11.3822 19.3221 12.1905 19.1098V23.4286C12.1905 23.5801 12.2507 23.7255 12.3578 23.8326C12.465 23.9398 12.6104 24 12.7619 24H21.9048C22.0563 24 22.2017 23.9398 22.3088 23.8326C22.416 23.7255 22.4762 23.5801 22.4762 23.4286V16.9524C22.4756 16.5309 22.32 16.1243 22.039 15.8102C21.758 15.496 21.3712 15.2963 20.9524 15.249ZM19.8095 12.7619V15.2381H17.705C18.4807 14.118 19.0113 12.8468 19.2621 11.5076C19.4349 11.6677 19.5726 11.8617 19.6668 12.0776C19.761 12.2934 19.8096 12.5264 19.8095 12.7619ZM14.8571 15.2381V12.7619C14.8576 12.3074 15.0384 11.8717 15.3598 11.5503C15.6812 11.2289 16.1169 11.0481 16.5714 11.0476H18.0952C18.1241 11.0476 18.1527 11.0483 18.1812 11.0498C17.9385 12.5947 17.2767 14.0434 16.2677 15.2381H14.8571ZM9.71429 18.2857C4.988 18.2857 1.14286 14.4406 1.14286 9.71429C1.14286 4.988 4.988 1.14286 9.71429 1.14286C14.4406 1.14286 18.2857 4.988 18.2857 9.71429C18.2857 9.78016 18.285 9.84595 18.2835 9.91167C18.2212 9.90757 18.1585 9.90476 18.0952 9.90476H16.5714C15.8139 9.90562 15.0877 10.2069 14.5521 10.7425C14.0164 11.2782 13.7151 12.0044 13.7143 12.7619V15.249C13.2955 15.2963 12.9087 15.496 12.6277 15.8102C12.3466 16.1243 12.191 16.5309 12.1905 16.9524V17.9223C11.3873 18.1642 10.553 18.2866 9.71429 18.2857ZM21.3333 22.8571H13.3333V16.9524C13.3335 16.8009 13.3938 16.6556 13.5009 16.5485C13.608 16.4414 13.7533 16.3811 13.9048 16.381H20.7619C20.9134 16.3811 21.0587 16.4414 21.1658 16.5485C21.2729 16.6556 21.3332 16.8009 21.3333 16.9524V22.8571Z" fill="white"/>
<path d="M18.8571 18.2857H15.8095C15.6579 18.2857 15.5126 18.3459 15.4054 18.4531C15.2982 18.5602 15.238 18.7056 15.238 18.8571C15.238 19.0087 15.2982 19.154 15.4054 19.2612C15.5126 19.3684 15.6579 19.4286 15.8095 19.4286H16.7618V21.1429C16.7618 21.2944 16.8221 21.4398 16.9292 21.5469C17.0364 21.6541 17.1817 21.7143 17.3333 21.7143C17.4848 21.7143 17.6302 21.6541 17.7373 21.5469C17.8445 21.4398 17.9047 21.2944 17.9047 21.1429V19.4286H18.8571C19.0086 19.4286 19.154 19.3684 19.2611 19.2612C19.3683 19.154 19.4285 19.0087 19.4285 18.8571C19.4285 18.7056 19.3683 18.5602 19.2611 18.4531C19.154 18.3459 19.0086 18.2857 18.8571 18.2857Z" fill="white"/>
</svg>
