<svg width="37" height="36" viewBox="0 0 37 36" fill="none" xmlns="http://www.w3.org/2000/svg">
<path d="M18.1078 14.9182C19.8266 14.9119 21.1955 13.5312 21.1893 11.8087C21.183 10.0855 19.8112 8.71437 18.0916 8.71289C16.3577 8.71105 14.973 10.1076 14.9862 11.8463C14.9991 13.5625 16.3835 14.9244 18.1078 14.9182Z" fill="white"/>
<path d="M18.0909 0C8.14979 0 0.0909424 8.05921 0.0909424 18C0.0909424 27.9408 8.14979 36 18.0909 36C28.0321 36 36.0909 27.9408 36.0909 18C36.0909 8.05921 28.0321 0 18.0909 0ZM18.1167 5.47384C21.6228 5.48342 24.4369 8.35126 24.4188 11.896C24.4012 15.359 21.541 18.1657 18.0409 18.1539C14.5764 18.1422 11.7351 15.2699 11.7557 11.7999C11.7752 8.29197 14.618 5.46427 18.1167 5.47384ZM25.218 20.645C24.4428 21.4409 23.5095 22.0169 22.4732 22.4187C21.4935 22.7984 20.42 22.9895 19.3571 23.117C19.5181 23.2915 19.5936 23.3773 19.6937 23.4775C21.1359 24.9275 22.5851 26.37 24.0226 27.824C24.5124 28.3198 24.6144 28.9341 24.3448 29.5097C24.0506 30.1395 23.3902 30.5534 22.7424 30.5088C22.3321 30.4805 22.0121 30.2768 21.7281 29.9907C20.6395 28.8954 19.5302 27.8196 18.4644 26.7037C18.1532 26.3789 18.0044 26.4408 17.73 26.7229C16.6351 27.8506 15.5221 28.9602 14.4029 30.064C13.9002 30.5597 13.3021 30.6495 12.7187 30.366C12.0989 30.0662 11.7049 29.4331 11.7351 28.7963C11.7564 28.3669 11.9678 28.0376 12.2632 27.7438C13.691 26.3189 15.1145 24.8895 16.5382 23.4613C16.6329 23.3667 16.7205 23.2661 16.8579 23.1188C14.9159 22.9159 13.1647 22.4379 11.6654 21.2656C11.4791 21.1198 11.2872 20.9791 11.1178 20.8155C10.4612 20.1854 10.3952 19.4632 10.9141 18.72C11.3587 18.0836 12.1041 17.9135 12.8793 18.2792C13.0296 18.3495 13.1725 18.4386 13.3095 18.5329C16.1033 20.4528 19.9416 20.5055 22.7465 18.6187C23.0241 18.4066 23.3213 18.232 23.6657 18.144C24.3345 17.9716 24.9591 18.218 25.3178 18.8036C25.7285 19.4728 25.7237 20.1254 25.218 20.645Z" fill="white"/>
</svg>
