<svg width="32" height="32" viewBox="0 0 32 32" fill="none" xmlns="http://www.w3.org/2000/svg">
<g clip-path="url(#clip0)">
<path fill-rule="evenodd" clip-rule="evenodd" d="M15.999 31.999C7.155 31.999 -0.000999451 24.842 -0.000999451 15.999C-0.000999451 7.15502 7.157 -0.000976562 15.999 -0.000976562C24.843 -0.000976562 31.999 7.15602 31.999 15.999C31.999 24.842 24.842 31.999 15.999 31.999ZM15.999 2.49902C8.537 2.49902 2.499 8.53802 2.499 15.999C2.499 23.46 8.538 29.499 15.999 29.499C23.461 29.499 29.499 23.46 29.499 15.999C29.499 8.53702 23.46 2.49902 15.999 2.49902ZM17.249 17.872V19.905C17.249 20.596 16.69 21.155 15.999 21.155C15.309 21.155 14.749 20.596 14.749 19.905V16.78C14.749 16.09 15.309 15.53 15.999 15.53C17.378 15.53 18.499 14.408 18.499 13.031C18.499 11.651 17.378 10.53 15.999 10.53C14.621 10.53 13.499 11.651 13.499 13.031C13.499 13.721 12.94 14.28 12.249 14.28C11.559 14.28 10.999 13.721 10.999 13.031C10.999 10.273 13.242 8.03002 15.999 8.03002C18.757 8.03002 20.999 10.273 20.999 13.031C20.999 15.355 19.403 17.315 17.249 17.872ZM15.999 22.093C16.862 22.093 17.562 22.792 17.562 23.655C17.562 24.518 16.862 25.217 15.999 25.217C15.136 25.217 14.437 24.518 14.437 23.655C14.437 22.792 15.136 22.093 15.999 22.093Z" fill="black"/>
</g>
<defs>
<clipPath id="clip0">
<rect width="32" height="32" fill="white"/>
</clipPath>
</defs>
</svg>
