<svg width="19" height="24" viewBox="0 0 19 24" fill="none" xmlns="http://www.w3.org/2000/svg">
<path d="M18.0397 4.62746L9.55026 0.103698C9.28767 -0.0364111 8.97304 -0.0343486 8.71218 0.108714L0.457687 4.63248C0.175406 4.78731 0 5.08337 0 5.40535V11.8092C0 16.8406 2.98603 21.4006 7.60851 23.4271L8.75414 23.9265C8.86636 23.9756 8.9865 24 9.10636 24C9.22532 24 9.34429 23.9759 9.45562 23.9277L10.7455 23.3708C15.4602 21.3756 18.5065 16.7915 18.5065 11.6914V5.40507C18.5065 5.07957 18.327 4.78056 18.0397 4.62746ZM16.744 11.6914C16.744 16.0833 14.119 20.0308 10.0558 21.7486C10.0537 21.7495 10.0517 21.7504 10.0496 21.7513L9.10814 22.1578L8.31468 21.8118C4.33434 20.0669 1.7625 16.1406 1.7625 11.8089V5.92707L9.14189 1.88326L16.7439 5.93415V11.6914H16.744Z" fill="white"/>
<path d="M13.8147 9.63745C13.5077 9.25997 12.9522 9.20269 12.5748 9.50995L8.04269 13.1969L6.36888 11.2369C6.05309 10.8668 5.49645 10.823 5.1266 11.1391C4.75648 11.4549 4.7127 12.0112 5.02877 12.3814L7.26129 14.9955C7.43548 15.1996 7.68284 15.3045 7.93193 15.3045C8.12759 15.3045 8.32437 15.2399 8.4874 15.1068L13.6871 10.8771C14.065 10.5701 14.122 10.0149 13.8147 9.63745Z" fill="white"/>
</svg>
