<svg xmlns="http://www.w3.org/2000/svg" viewBox="0 0 271 252.85"><g id="Layer_2" data-name="Layer 2"><g id="Layer_2-2" data-name="Layer 2"><path d="M193,167.5H181a28,28,0,0,0,28,28v-12A16,16,0,0,1,193,167.5Z"/><path d="M253.8,220.12a2,2,0,0,0-2.74-.68l-15.44,9.26a2,2,0,0,0-.68,2.74l12.26,20.44a2,2,0,0,0,1.72,1,1.91,1.91,0,0,0,1-.29l15.44-9.26a2,2,0,0,0,.68-2.74Z"/><path d="M271,167.5a62,62,0,1,0-62,62A62.07,62.07,0,0,0,271,167.5Zm-62,44a44,44,0,1,1,44-44A44.05,44.05,0,0,1,209,211.5Z"/><path d="M138.69,150H123.5V18h117v85.77a2,2,0,0,0,1.07,1.77,70.28,70.28,0,0,1,13.61,9.38,2,2,0,0,0,3.32-1.5V9a9,9,0,0,0-9-9h-135a9,9,0,0,0-9,9V29.93L54.07,29.5a9.17,9.17,0,0,0-7.27,3.6l-45,60A9.08,9.08,0,0,0,0,98.5v60a9,9,0,0,0,9,9l13.68.07a40,40,0,0,0,78.66.37l13.2.06H137a2,2,0,0,0,2-2,70,70,0,0,1,1.6-13.61,2,2,0,0,0-1.95-2.43ZM62,182.5a22,22,0,1,1,22-22A22,22,0,0,1,62,182.5ZM105.42,150l-4.85,0a40,40,0,0,0-77-.36l-5.53,0v-48l40.47-54,46.1.39Z"/></g></g></svg>