<svg width="37" height="36" viewBox="0 0 37 36" fill="none" xmlns="http://www.w3.org/2000/svg">
<path d="M18.4546 0C8.51343 0 0.45459 8.05884 0.45459 18C0.45459 27.9412 8.51343 36 18.4546 36C28.3957 36 36.4546 27.9412 36.4546 18C36.4546 8.05884 28.3957 0 18.4546 0ZM29.3393 13.1998C29.3478 13.4123 29.3522 13.6251 29.3522 13.8391C29.3522 21.5282 23.5012 29.4813 13.71 29.4813C10.7169 29.4813 7.80264 28.6273 5.28246 27.0109C5.22979 26.9774 5.20806 26.9122 5.22905 26.8536C5.25005 26.7954 5.30934 26.7593 5.37011 26.7663C5.7929 26.8168 6.22527 26.8418 6.65432 26.8418C8.983 26.8418 11.1876 26.1218 13.0522 24.7558C10.8171 24.5673 8.89608 23.0547 8.20518 20.8969C8.19081 20.852 8.20113 20.803 8.23206 20.7677C8.26337 20.7323 8.31124 20.7168 8.35691 20.7253C8.97637 20.8428 9.60614 20.8505 10.2131 20.7518C7.90797 20.0355 6.28788 17.8763 6.28788 15.4179L6.28862 15.3465C6.28972 15.2997 6.31513 15.257 6.35564 15.2338C6.39579 15.2102 6.44587 15.2099 6.48638 15.2327C7.08743 15.5664 7.75255 15.7807 8.43499 15.8628C7.11026 14.807 6.33244 13.2064 6.33244 11.4942C6.33244 10.5065 6.59392 9.53567 7.0889 8.68677C7.111 8.64884 7.15004 8.62453 7.1935 8.62122C7.23732 8.6168 7.27967 8.63595 7.3073 8.66983C10.0186 11.9955 14.0068 14.0431 18.2716 14.3065C18.2005 13.9485 18.1644 13.5795 18.1644 13.2071C18.1644 10.1279 20.6695 7.62316 23.7483 7.62316C25.262 7.62316 26.7248 8.2452 27.7733 9.33238C28.9552 9.09152 30.081 8.65694 31.1211 8.04043C31.1686 8.01207 31.2282 8.01649 31.2721 8.05074C31.3148 8.08536 31.3325 8.14281 31.3155 8.19585C30.9631 9.29813 30.2758 10.2597 29.3526 10.9539C30.2221 10.8026 31.0658 10.547 31.8683 10.1909C31.9221 10.1662 31.9858 10.1816 32.0245 10.2269C32.0628 10.2726 32.0661 10.3378 32.0329 10.3872C31.3019 11.4813 30.3959 12.4275 29.3393 13.1998Z" fill="white"/>
</svg>
