<svg width="36" height="36" viewBox="0 0 36 36" fill="none" xmlns="http://www.w3.org/2000/svg">
<path d="M18 0C8.05921 0 0 8.05884 0 18C0 27.9412 8.05921 36 18 36C27.9408 36 36 27.9412 36 18C36 8.05884 27.9408 0 18 0ZM27.1306 19.9468C27.9695 20.7662 28.8571 21.5374 29.6102 22.4415C29.9439 22.8415 30.2584 23.2551 30.4978 23.7202C30.8396 24.3835 30.5309 25.1109 29.9373 25.1503L26.2496 25.1495C25.2972 25.2284 24.5393 24.8442 23.9003 24.1931C23.3902 23.6742 22.917 23.1199 22.4257 22.5833C22.225 22.3631 22.0136 22.1557 21.7617 21.9926C21.259 21.6656 20.8222 21.7657 20.5342 22.2909C20.2407 22.8253 20.1736 23.4175 20.1456 24.0123C20.1055 24.8818 19.8433 25.109 18.9708 25.1499C17.1065 25.2372 15.3377 24.9544 13.6936 24.0145C12.2433 23.1855 11.1208 22.0154 10.1426 20.6907C8.23783 18.1083 6.77905 15.2739 5.46832 12.3582C5.17332 11.7016 5.38914 11.3502 6.11355 11.3366C7.31711 11.3134 8.52067 11.3163 9.72423 11.3355C10.2141 11.3432 10.5381 11.6235 10.7263 12.0857C11.3767 13.6859 12.1741 15.2084 13.1732 16.6204C13.4395 16.9964 13.7113 17.3713 14.0984 17.6369C14.5256 17.93 14.8512 17.8332 15.0526 17.3562C15.1815 17.0531 15.2371 16.729 15.2651 16.4042C15.3609 15.2916 15.3723 14.1794 15.2065 13.0712C15.1034 12.3777 14.7134 11.9299 14.0221 11.7988C13.6701 11.7321 13.7216 11.6018 13.8929 11.4007C14.1901 11.053 14.4685 10.8379 15.025 10.8379L19.1914 10.8372C19.8481 10.9661 19.9954 11.2607 20.0845 11.9222L20.0882 16.5523C20.0804 16.8082 20.2167 17.5669 20.6763 17.7345C21.0446 17.856 21.2877 17.5606 21.5079 17.3275C22.5071 16.2672 23.219 15.0158 23.8565 13.7205C24.1379 13.1493 24.3806 12.5582 24.6163 11.966C24.7916 11.5281 25.0641 11.3127 25.5583 11.32L29.5705 11.3248C29.6887 11.3248 29.8087 11.3259 29.9259 11.3462C30.602 11.4618 30.7873 11.7528 30.5781 12.4124C30.2488 13.4487 29.6091 14.312 28.9838 15.1775C28.3135 16.1041 27.5986 16.9983 26.935 17.9289C26.3251 18.7797 26.3734 19.208 27.1306 19.9468Z" fill="white"/>
</svg>
