<svg width="28" height="24" viewBox="0 0 28 24" fill="none" xmlns="http://www.w3.org/2000/svg">
<path d="M23.1683 17.0198V22.2178H3.0297C2.33019 22.2178 1.78217 21.6698 1.78217 20.9703V3.77226H0V20.9703C0 22.6408 1.35922 24 3.0297 24H24.0594C24.5516 24 24.9505 23.6011 24.9505 23.1089V17.0198H23.1683Z" fill="white"/>
<path d="M26.198 11.2574H19.4554C18.9633 11.2574 18.5643 11.6563 18.5643 12.1485V17.0198C18.5643 17.5119 18.9633 17.9109 19.4554 17.9109H26.198C26.6902 17.9109 27.0891 17.5119 27.0891 17.0198V12.1485C27.0891 11.6563 26.6902 11.2574 26.198 11.2574ZM25.3069 16.1287H20.3466V13.0396H25.3069V16.1287Z" fill="white"/>
<path d="M24.0297 5.34656H21.8911V0.891084C21.8911 0.39893 21.4921 0 21 0H3.56434C1.59889 0 0 1.59889 0 3.56434C0 5.52978 1.59889 7.12867 3.56434 7.12867H23.1386V12.1782H24.9208V6.23764C24.9208 5.74543 24.5219 5.34656 24.0297 5.34656ZM20.1089 5.34656H3.56434C2.56511 5.34656 1.78217 4.56356 1.78217 3.56439C1.78217 2.56521 2.56516 1.78222 3.56434 1.78222H20.1089V5.34656Z" fill="white"/>
<path d="M21 2.70295H3.59406C3.1019 2.70295 2.70297 3.10188 2.70297 3.59404C2.70297 4.08619 3.1019 4.48512 3.59406 4.48512H21C21.4921 4.48512 21.8911 4.08619 21.8911 3.59404C21.8911 3.10188 21.4922 2.70295 21 2.70295Z" fill="white"/>
</svg>
