<svg width="37" height="36" viewBox="0 0 37 36" fill="none" xmlns="http://www.w3.org/2000/svg">
<path d="M14.9927 21.9451C17.6937 20.5445 20.3712 19.1568 23.0733 17.7555C20.3631 16.3413 17.6864 14.9455 14.9927 13.5397C14.9927 16.3512 14.9927 19.134 14.9927 21.9451Z" fill="white"/>
<path d="M18.2727 0C8.33192 0 0.272705 8.05884 0.272705 18C0.272705 27.9412 8.33192 36 18.2727 36C28.2135 36 36.2727 27.9412 36.2727 18C36.2727 8.05884 28.2135 0 18.2727 0ZM30.537 24.0082C30.2254 25.3598 29.1198 26.3568 27.7892 26.5052C24.6378 26.8577 21.4484 26.8595 18.272 26.8577C15.0955 26.8595 11.9054 26.8577 8.75324 26.5052C7.42262 26.3568 6.31776 25.3598 6.00692 24.0082C5.56388 22.0828 5.56388 19.9817 5.56388 18C5.56388 16.0182 5.56903 13.9164 6.01208 11.9918C6.32291 10.6402 7.42777 9.64284 8.75839 9.49406C11.9106 9.14197 15.1007 9.14013 18.2771 9.14197C21.4529 9.14013 24.643 9.14197 27.794 9.49406C29.1254 9.64284 30.231 10.6398 30.5418 11.9918C30.9848 13.9168 30.9812 16.0182 30.9812 18C30.9812 19.9817 30.9801 22.0832 30.537 24.0082Z" fill="white"/>
</svg>
